<?xml version="1.0" standalone="no"?>
<!DOCTYPE svg PUBLIC "-//W3C//DTD SVG 20010904//EN"
 "http://www.w3.org/TR/2001/REC-SVG-20010904/DTD/svg10.dtd">
<svg version="1.0" xmlns="http://www.w3.org/2000/svg"
 width="1200.000000pt" height="1200.000000pt" viewBox="0 0 1200.000000 1200.000000"
 preserveAspectRatio="xMidYMid meet">
<metadata>
Created by potrace 1.14, written by Peter Selinger 2001-2017
</metadata>
<g transform="translate(0.000000,1200.000000) scale(0.100000,-0.100000)"
fill="#000000" stroke="none">
<path d="M10 8621 c-13 -25 -14 -670 0 -691 8 -13 179 -16 1407 -20 l1397 -5
41 -57 c22 -31 101 -142 175 -248 74 -105 152 -213 172 -241 l37 -49 -1 -1456
c0 -1122 3 -1458 12 -1469 18 -22 681 -22 703 -1 12 12 14 154 13 943 -1 510
0 934 2 940 4 12 82 -95 527 -722 109 -154 215 -302 235 -330 21 -27 133 -185
250 -350 117 -165 227 -319 244 -342 17 -23 48 -67 69 -97 l38 -56 318 0 c278
0 320 2 332 16 19 23 19 3245 0 3268 -12 14 -57 16 -350 16 -185 0 -342 -4
-350 -9 -13 -8 -15 -148 -15 -971 0 -776 -2 -958 -12 -948 -11 11 -64 84 -199
273 -420 590 -690 969 -713 1000 -32 44 -480 673 -526 739 -150 215 -622 873
-630 878 -6 4 -721 8 -1588 8 -1549 0 -1577 0 -1588 -19z"/>
<path d="M10475 7716 c-373 -52 -727 -232 -993 -505 -322 -330 -490 -744 -489
-1206 0 -294 53 -520 182 -777 247 -492 730 -847 1260 -927 130 -19 170 -22
280 -22 466 1 899 182 1228 513 33 34 57 66 57 79 0 14 -75 96 -234 255 -129
129 -240 235 -248 235 -29 3 -40 -4 -105 -67 -195 -189 -432 -286 -698 -285
-268 1 -509 98 -693 279 -93 92 -126 135 -184 242 -116 210 -151 477 -93 712
88 356 385 653 732 732 112 25 134 28 233 28 278 0 522 -103 728 -308 36 -37
58 -52 72 -49 31 6 490 469 490 495 0 13 -25 46 -62 83 -262 261 -579 424
-943 485 -132 23 -386 26 -520 8z"/>
<path d="M12 7658 c-19 -19 -17 -3261 2 -3277 9 -8 110 -11 352 -9 l338 3 41
60 c23 33 157 232 298 443 363 539 379 562 388 557 4 -3 50 -69 104 -147 92
-136 203 -300 548 -806 84 -122 211 -309 282 -415 72 -105 169 -248 217 -317
47 -69 123 -181 170 -250 l85 -125 4579 0 4579 0 3 340 c1 187 0 350 -3 362
l-5 23 -4138 0 c-2275 0 -4237 0 -4359 0 l-222 0 -101 148 c-56 81 -200 291
-320 467 -121 176 -226 329 -234 340 -8 11 -34 49 -58 85 -24 36 -113 166
-198 290 -154 223 -183 266 -375 546 -95 140 -99 147 -85 170 8 13 81 122 162
242 178 264 472 700 673 997 81 121 149 230 151 243 1 13 -5 26 -16 32 -12 6
-174 10 -418 10 -367 0 -400 -1 -414 -17 -8 -10 -100 -144 -203 -298 -104
-154 -266 -395 -360 -535 -95 -140 -241 -356 -324 -480 -84 -124 -212 -313
-284 -422 l-132 -196 -5 964 c-4 843 -7 966 -20 974 -23 15 -683 13 -698 -2z"/>
<path d="M6250 7660 c-13 -8 -15 -58 -16 -347 0 -307 1 -338 17 -354 16 -16
56 -18 524 -18 279 0 509 -2 512 -5 3 -2 5 -574 5 -1270 -1 -1113 1 -1268 14
-1281 23 -22 685 -23 704 0 9 11 12 293 12 1285 l0 1270 52 0 c28 1 259 1 513
1 398 0 465 2 478 15 11 11 15 37 15 92 2 544 1 594 -11 608 -10 12 -209 14
-1408 14 -862 0 -1402 -4 -1411 -10z"/>
</g>
</svg>
